<?xml version="1.0" encoding="utf-8"?>
<!-- Generator: Adobe Illustrator 24.2.3, SVG Export Plug-In . SVG Version: 6.00 Build 0)  -->
<svg version="1.1" id="Layer_1" xmlns="http://www.w3.org/2000/svg" xmlns:xlink="http://www.w3.org/1999/xlink" x="0px" y="0px"
	 viewBox="0 0 122.9 121.1" style="enable-background:new 0 0 122.9 121.1;" xml:space="preserve">
<style type="text/css">
	.st0{fill:#999999;}
</style>
<g>
	<path class="st0" d="M62.4,61.5h34.2c1.6,0,3.1,0.7,4.1,1.7c1.1,1.1,1.7,2.5,1.7,4.1v34c0,1.6-0.7,3.1-1.7,4.1
		c-1.1,1.1-2.5,1.7-4.1,1.7H62.4c-1.6,0-3.1-0.7-4.1-1.7c-1.1-1-1.7-2.5-1.7-4.1v-34c0-1.6,0.7-3.1,1.7-4.1
		C59.3,62.2,60.8,61.5,62.4,61.5L62.4,61.5z M6.8,7.3H41c1.6,0,3.1,0.7,4.1,1.7s1.7,2.5,1.7,4.1v34c0,1.6-0.7,3.1-1.7,4.1
		c-1.1,1.1-2.5,1.7-4.1,1.7H6.8c-1.6,0-3-0.7-4.1-1.7l0,0l0,0C1.7,50.2,1,48.7,1,47.1v-34c0-1.6,0.7-3.1,1.7-4.1
		c0.1-0.1,0.2-0.1,0.2-0.2C4,7.9,5.3,7.3,6.8,7.3L6.8,7.3z M40.7,13.4H7.1v33.4h33.6L40.7,13.4L40.7,13.4z M62.4,7.3h34.2
		c1.6,0,3.1,0.7,4.1,1.7c1.1,1.1,1.7,2.5,1.7,4.1v34c0,1.6-0.7,3.1-1.7,4.1c-1.1,1.1-2.5,1.7-4.1,1.7H62.4c-1.6,0-3.1-0.7-4.1-1.7
		c-1.1-1.1-1.7-2.5-1.7-4.1v-34c0-1.6,0.7-3.1,1.7-4.1C59.3,7.9,60.8,7.3,62.4,7.3L62.4,7.3z M96.2,13.4H62.6v33.4h33.6V13.4
		L96.2,13.4z M6.8,61.5H41c1.6,0,3.1,0.7,4.1,1.7c1.1,1.1,1.7,2.5,1.7,4.1v34c0,1.6-0.7,3.1-1.7,4.1c-1.1,1.1-2.5,1.7-4.1,1.7H6.8
		c-1.6,0-3-0.7-4.1-1.7l0,0l0,0c-1.1-1-1.7-2.5-1.7-4.1v-34c0-1.6,0.7-3.1,1.7-4.1c0.1-0.1,0.2-0.2,0.2-0.2
		C4,62.1,5.3,61.5,6.8,61.5L6.8,61.5z M40.7,67.6H7.1v33.4h33.6L40.7,67.6L40.7,67.6z M96.2,67.6H62.6v33.4h33.6V67.6L96.2,67.6z"/>
</g>
<rect x="2.5" y="11.7" class="st0" width="40.3" height="36.4"/>
<rect x="58.1" y="11.9" class="st0" width="40.3" height="36.4"/>
<rect x="2.5" y="65.3" class="st0" width="40.3" height="36.4"/>
<rect x="59.3" y="65.3" class="st0" width="40.3" height="36.4"/>
</svg>
